# xmcd CD database file
#
# Track frame offsets:
#	150
#	29556
#	51393
#	75695
#	107693
#	132876
#	158996
#	179330
#	204442
#	231526
#	261321
#	290718
#	314581
#	333617
#
# Disc length: 4641 seconds
#
# Revision: 0
# Processed by: cddbd v1.5.1PL2 Copyright (c) Steve Scherf et al.
# Submitted via: CDex 1.51
#
DISCID=db121f0e
DTITLE=Various Artist - Vol. 6 Number 1
DYEAR=2005
DGENRE=Jazz
TTITLE0=Derrick Gardner/The Big Beat
TTITLE1=Bradley Leighton/Carefree
TTITLE2=3D/My Love Will Return
TTITLE3=Judi Silvano/Our Love Is Here to Stay
TTITLE4=Randy Sandke/Sounds of Smiting Steel
TTITLE5=Gerald Wilson/Musette
TTITLE6=Eric Nemeyer/Enlarged to Show Texture
TTITLE7=Grahame Rhodes/Casa del Sol
TTITLE8=Dan McMillion/Spirit of St. Frederick
TTITLE9=Herb Silverstein/Beach Walker
TTITLE10=Mark Pender/Let's Get It Together
TTITLE11=Rhythm and Brass/Inside the Blue Suitcase
TTITLE12=Peter Erskine/Plan 9
TTITLE13=Data
EXTD=YEAR: 2005
EXTT0=
EXTT1=
EXTT2=
EXTT3=
EXTT4=
EXTT5=
EXTT6=
EXTT7=
EXTT8=
EXTT9=
EXTT10=
EXTT11=
EXTT12=
EXTT13=
PLAYORDER=
